<?xml version="1.0" standalone="no"?>
<!DOCTYPE svg PUBLIC "-//W3C//DTD SVG 20010904//EN"
 "http://www.w3.org/TR/2001/REC-SVG-20010904/DTD/svg10.dtd">
<svg version="1.0" xmlns="http://www.w3.org/2000/svg"
 width="512.000000pt" height="512.000000pt" viewBox="0 0 512.000000 512.000000"
 preserveAspectRatio="xMidYMid meet">
<metadata>
Created by potrace 1.14, written by Peter Selinger 2001-2017
</metadata>
<g transform="translate(0.000000,512.000000) scale(0.100000,-0.100000)"
fill="#000000" stroke="none">
<path d="M4746 4976 c-48 -96 -77 -136 -154 -214 l-42 -43 52 -52 c72 -72 82
-85 142 -198 l53 -100 33 68 c45 93 98 169 160 231 l52 53 -36 33 c-57 54
-133 160 -171 241 -20 41 -37 75 -39 75 -1 0 -24 -42 -50 -94z"/>
<path d="M3764 4738 c-19 -60 -132 -280 -153 -298 -3 -3 -19 -24 -34 -46 -15
-23 -38 -51 -51 -63 l-22 -21 -72 35 c-40 19 -75 35 -78 35 -3 0 -20 6 -37 14
-38 17 -68 28 -82 31 -5 2 -35 10 -65 20 -91 28 -185 51 -255 61 -16 2 -43 7
-60 10 -94 17 -349 23 -480 11 -313 -29 -656 -142 -893 -293 -29 -19 -55 -34
-58 -34 -2 0 -10 -5 -17 -10 -7 -6 -52 -40 -102 -78 -284 -213 -511 -502 -653
-834 -54 -124 -118 -335 -128 -418 -1 -14 -8 -50 -14 -80 -27 -133 -29 -458
-5 -595 19 -104 36 -184 44 -213 5 -18 10 -36 10 -40 2 -18 55 -178 62 -186 5
-6 9 -16 9 -24 0 -19 93 -213 139 -287 20 -33 41 -67 46 -77 15 -25 97 -141
109 -155 6 -6 27 -31 46 -53 19 -23 52 -61 72 -84 36 -39 48 -66 29 -66 -18 0
-27 -81 -27 -245 l1 -171 -103 1 c-176 1 -202 -18 -257 -187 -20 -62 -38 -117
-39 -123 -2 -5 -8 -29 -15 -53 l-12 -43 -105 1 c-275 1 -317 1 -323 2 -3 0
-37 0 -74 -1 -58 -1 -72 -5 -92 -26 -32 -31 -32 -69 0 -100 l24 -25 2511 0
2511 0 24 25 c32 31 32 69 0 100 l-24 25 -284 0 -285 0 -7 28 c-5 15 -9 32
-11 37 -1 6 -14 48 -29 95 -15 47 -28 90 -30 95 -11 52 -37 94 -74 122 -32 25
-42 27 -148 29 -63 1 -116 4 -120 7 -3 3 -6 88 -7 189 -1 161 -4 186 -20 211
l-19 28 29 32 c16 17 31 34 34 37 58 60 187 231 224 296 9 16 26 45 38 64 32
54 102 199 125 260 12 30 25 64 29 75 4 11 8 22 8 25 1 3 4 10 7 15 4 6 10 26
15 45 4 19 9 40 10 45 52 185 79 379 77 560 0 106 -6 208 -14 250 -4 22 -10
61 -13 85 -2 25 -5 45 -6 45 -1 0 -4 14 -6 30 -3 17 -9 41 -14 55 -5 14 -11
36 -13 50 -11 78 -73 242 -150 400 -50 102 -181 312 -198 318 -5 2 -9 10 -9
18 0 8 -4 14 -8 14 -4 0 -24 21 -44 48 -20 26 -67 78 -103 114 l-67 68 37 44
c20 25 63 69 96 99 53 50 72 77 52 77 -16 0 -182 172 -183 188 -1 4 -14 23
-30 42 -17 19 -30 40 -30 47 0 7 -4 13 -10 13 -5 0 -12 11 -16 25 -3 14 -10
25 -14 25 -7 0 -100 193 -100 209 0 21 -19 20 -26 -1z"/>
</g>
</svg>
